<?xml version="1.0" encoding="utf-8"?>
<!-- Generator: Adobe Illustrator 23.1.0, SVG Export Plug-In . SVG Version: 6.00 Build 0)  -->
<svg version="1.1" id="图层_1" xmlns="http://www.w3.org/2000/svg" xmlns:xlink="http://www.w3.org/1999/xlink" x="0px" y="0px"
	 viewBox="0 0 185.1 68" style="enable-background:new 0 0 185.1 68;" xml:space="preserve">
<style type="text/css">
	.st0{fill:#25A9E0;}
	.st1{fill:#403F41;}
	.st2{fill:#808183;}
</style>
<g>
	<path class="st0" d="M47.1,16.2c-0.3,0.1-0.6,0.1-0.2-0.3l0,0c-0.4,0.4-0.8,0.8-1.2,1.3C46.2,16.7,46.6,16.4,47.1,16.2z"/>
	<path class="st0" d="M8.6,28.8L7.7,30l-0.8,1.2c-0.6,0.8-1,1.6-1.4,2.5c-0.8,1.7-1.4,3.6-1.8,5.4c-0.4,1.8-0.5,3.7-0.3,5.4
		c0.2,1.6,0.7,3.3,1.2,4.1l0.1,0.2c0,0,0,0,0.1,0.1c0,0,0.1,0,0.1,0.1C5,49,5,49,5.1,49.1c0.1,0,0.2,0,0.2,0c0,0.1,0.2-0.2,0.5-0.4
		C6,48.6,6.2,48.2,6.5,48c0.9-1,1.9-2.5,2.9-3.9c0.5-0.7,0.9-1.5,1.4-2.2c0.4-0.7,0.9-1.5,1.3-2.2c0.6-1,1.2-2.2,1.7-3.6
		c0.5-1.3,0.9-2.8,1.3-4.1c0.4-1.4,0.6-2.8,0.8-4.1s0.4-2.6,0.4-3.7c0.1-2,0-3.5-0.2-4c-0.2,0.2-0.3,0.3-0.5,0.5
		c-0.1,0.5-0.3,1.2-0.5,2.4c0.1-0.7,0.2-1.4,0.3-2.1C12.8,23.3,10.7,26.2,8.6,28.8z"/>
	<path class="st0" d="M44.7,18.1c0.3-0.3,0.6-0.6,0.9-1c-0.1,0.1-0.1,0.1-0.2,0.2C45.3,17.6,44.9,17.8,44.7,18.1z"/>
	<path class="st0" d="M67.6,25.2c-0.1-0.6-0.5-1.7-0.5-1.7c0.3-2.7-0.6-5.4-1.9-7.8c0,0.4,0,0.8,0,1.2c0.5,1.3,0.8,1.5,0.6,0.4
		c0.5,3.1,0.8,5.9,1.2,8.8C67.2,26,67.6,26,67.6,25.2z"/>
	<path class="st0" d="M47.1,16.2c0.4-0.1,0.8-0.4,1-0.4C47.8,15.9,47.4,16,47.1,16.2z"/>
	<path class="st0" d="M37.4,33.8c-0.4,1.2-0.6,2,0,1.2C37.4,34.6,37.4,34.2,37.4,33.8z"/>
	<path class="st0" d="M31.6,52.6c0.3,0.5,0.7,0.6,1,0.3c0.1-0.1,0.3-0.2,0.4-0.3l0.1-0.1l0.2-0.4l0.2-0.3l0.2-0.5
		c0.2-0.3,0.3-0.6,0.5-1c1.2-2.7,2-5.7,2.6-8.7c0.3-2,0.5-4.2,0.6-6.2c-1.8,3-4.2,6.9-5.3,10.7C31.3,48.8,31,52.8,31.6,52.6z"/>
	<path class="st0" d="M31,36.9c-1.1,1.2-2.4,2.9-2.8,5.1C29.4,40.4,30.4,38.6,31,36.9z"/>
	<path class="st0" d="M1.9,22.6c0.9-1.2,1.9-2.5,3-3.7c2-2.5,4.3-4.7,6.9-6.9c1-0.9,2.1-1.7,3.4-2.6c-0.3-1-0.6-1.9-0.9-2.9
		c-0.7-1.8-1.4-3.5-2.2-5c-0.2-0.3-0.3-0.7-0.5-1h-1c-4.9,0-8.9,4-8.9,8.9v13.8C1.5,23.1,1.7,22.9,1.9,22.6z"/>
	<path class="st0" d="M68,40.8c0.1-0.1,0.1-0.2,0.2-0.4V9.5c0-4.9-4-8.9-8.9-8.9H20.2c0.8,1.4,1.5,3.1,2.1,4.7
		c2.5-0.9,5-1.6,7.9-1.5c1.9,0.1,3.9,0.6,5.6,1.6s3.2,2.5,4.2,4c1.9,2.9,3,6,3.7,9.1c1.1-1.1,2.2-2.2,3.5-3.3
		c-0.1,0.1-0.2,0.3-0.3,0.4c0.3-0.3,0.5-0.5,0.8-0.8c0.8-0.7,1.6-1.3,2.6-1.8c0.5-0.2,1-0.5,1.6-0.6c0.7-0.3,0.9-0.7,1.3-1.1
		c1.6-0.8,3.4-1.4,5.2-1.5c1.8-0.1,3.8,0.7,5.1,2c1.3,1.3,2.1,3.2,2.9,4.9c0.6,1.8,1.1,3.7,1.4,5.6c0,0,0,1-0.1,2.2
		c-0.1,1.2-0.2,2.6-0.4,3.2c-0.1-0.6-0.1-1.2-0.2-1.8L67,26c-0.4-2.6-1-5.2-2-7.6c-0.4-1.2-1.1-2.2-1.7-3.2c-0.7-0.9-1.4-1.6-2.1-2
		c-0.4-0.2-0.8-0.3-1.1-0.4c-0.3-0.1-0.6-0.1-0.8-0.2c-0.3,0-0.6-0.1-1,0c-1.1,0-2.5,0.3-4,0.9c-2,0.8-3.6,3.4-5.9,5.8
		c-0.3,0.4-0.9-0.3-1.5,0.6c-0.8,1-1.5,2-2.2,3.1c0,0.3,0.1,0.5,0.1,0.8c0.5-0.7,1.1-1.4,1.7-2.1c-0.6,0.7-1.1,1.5-1.7,2.4
		c0.5,4.6,0.4,9.1,0,13.6c-0.6,6-2,11.9-4.9,17.2c-0.4,0.7-0.8,1.4-1.3,2.1l-0.8,1.1l-0.8,1c-1.1,1.3-2.5,2.5-3.9,3.1
		c-0.7,0.4-1.5,0.5-2.2,0.6c-0.8,0-1.6-0.1-2.4-0.5c-1.4-0.9-2.1-2.4-2.7-4c-0.9-3.2-0.5-7.3,0.1-10c0.7-3,1.7-5.7,3-8.5
		c1.5-3.4,3.4-6.5,5.3-9.5c0.9-1.4,1.9-2.9,3-4.2c-0.1-1.1-0.3-2.1-0.4-3.2c-0.5-2.9-1.3-5.6-2.5-7.6c-0.5-0.9-1.1-1.6-1.7-2.1
		c-0.6-0.5-1.1-0.7-1.7-0.8c-1.3-0.3-3.7,0.2-6,1.3c-0.1,0-0.1,0.1-0.2,0.1c0.1,1,0.2,1.9,0.2,3c0.4,7.8-0.9,15.2-2.6,20
		c-1,3.2-2.1,6.3-3.6,9.5c-0.7,1.5-1.5,3.1-2.5,4.6c-0.4,0.7-1,1.5-1.5,2.2c-0.3,0.4-0.6,0.7-0.9,1.1c-0.3,0.4-0.6,0.7-1,1.1
		c-0.4,0.3-0.7,0.7-1.2,1c-0.5,0.4-1,0.7-1.6,1c-0.5,0.3-1.1,0.5-1.7,0.8c-0.6,0.2-1.2,0.3-1.8,0.4c-1.6,0.3-3.4,0-4.9-0.7v0.1
		c0,4.9,4,8.9,8.9,8.9h46.8c1.1-1.3,2.4-2.8,3.6-4.2c-0.9,1.1-1,0.8-0.3-0.6c0.3-0.3,0.7-0.6,1-0.8c-0.8,2-1.9,4.1-3.5,5.6H59
		c4.9,0,8.9-4,8.9-8.9V40.5C68.1,40.6,68.1,40.7,68,40.8z M65.3,38.1c-0.2,3.6,0.4,6.6-0.3,8.9c-0.5,1.7-1.1,3.2-1.7,4.7
		c0.4-1.1,0.8-2.2,1.1-3.5c0.8-4.5,1-8.8,0.9-13.2c0.1-2.7,0-5-0.3-7.4c-0.2-2.4-0.6-4.7-1.4-7.4c-0.5-1.7-0.1-1.2,0.6,0
		c0.7,1.3,1.4,3.6,1.7,4.8c0.3,1.1-0.6,3-0.3,4.1c0.1,2.5,0.4,4.7,0.4,7.5C66.1,37.7,65.2,37.4,65.3,38.1z M67.3,47.7
		c-0.1-0.6-0.2-1,0.1-1.7c0.3-0.5,0.5-1.1,0.7-1.6C67.9,45.4,67.6,46.6,67.3,47.7z"/>
</g>
<g>
	<path class="st1" d="M99.7,67.1h-2.4v-9.5c0-0.7,0.1-1.7,0.2-2.8l0,0c-0.2,0.6-0.5,1.1-0.6,1.3l-7.3,10.9h-1.2l-7.3-10.8
		c-0.2-0.4-0.4-0.8-0.6-1.5l0,0c0.1,0.6,0.1,1.5,0.1,2.8v9.5h-2.4V52.9h3.3l6.5,9.8c0.5,0.7,0.8,1.3,1,1.7h-0.1
		c0.5-0.7,0.7-1.3,1-1.7l6.7-9.8h3.2V67.1z"/>
	<path class="st1" d="M119.8,66.5c-1.6,0.6-3.5,0.8-5.8,0.8c-3,0-5.5-0.6-7.3-1.9c-1.8-1.3-2.8-3-2.8-5.1c0-2.3,1-4.1,3-5.5
		c2.1-1.3,4.6-2.1,7.8-2.1c2.1,0,3.6,0.2,5,0.6v1.8c-1.6-0.6-3.2-0.8-5.1-0.8c-2.4,0-4.5,0.5-5.9,1.6c-1.6,1.1-2.3,2.5-2.3,4.4
		c0,1.7,0.7,3.2,2.2,4.1c1.5,1,3.3,1.6,5.6,1.6c2.2,0,4-0.4,5.6-1v1.5H119.8z"/>
	<path class="st1" d="M138,53.3l-12.5,12.2h12.1V67h-15.9v-0.5l12.4-12.1h-11.3v-1.5H138V53.3z"/>
	<path class="st1" d="M150,67.4c-3,0-5.5-0.6-7.3-1.9c-1.8-1.3-2.7-3-2.7-5.2c0-2.3,1-4.1,2.8-5.5c1.8-1.3,4.4-2.1,7.5-2.1
		c2.9,0,5.3,0.6,7.2,1.9c1.8,1.3,2.7,3,2.7,5.2c0,2.3-1,4.1-2.8,5.5C155.6,66.6,153.2,67.4,150,67.4z M150.2,54.3
		c-2.2,0-4,0.5-5.5,1.6c-1.5,1.1-2.1,2.4-2.1,4.2c0,1.8,0.7,3.2,2.1,4.2c1.3,1.1,3.2,1.6,5.3,1.6c2.3,0,4.1-0.5,5.6-1.6
		c1.3-1,2.1-2.4,2.1-4.2c0-1.8-0.6-3.3-1.9-4.4C154.4,54.8,152.5,54.3,150.2,54.3z"/>
	<path class="st1" d="M173,67.4c-3,0-5.5-0.6-7.3-1.9c-1.8-1.3-2.7-3-2.7-5.2c0-2.3,1-4.1,2.8-5.5c1.8-1.3,4.4-2.1,7.5-2.1
		c2.9,0,5.3,0.6,7.2,1.9c1.8,1.3,2.7,3,2.7,5.2c0,2.3-1,4.1-2.8,5.5C178.5,66.6,176.1,67.4,173,67.4z M173.2,54.3
		c-2.2,0-4,0.5-5.5,1.6c-1.5,1.1-2.1,2.4-2.1,4.2c0,1.8,0.7,3.2,2.1,4.2c1.3,1.1,3.2,1.6,5.3,1.6c2.3,0,4.1-0.5,5.6-1.6
		c1.3-1,2.1-2.4,2.1-4.2c0-1.8-0.6-3.3-1.9-4.4C177.3,54.8,175.5,54.3,173.2,54.3z"/>
</g>
<g>
	<rect x="123" y="1.4" class="st2" width="5" height="13"/>
	<rect x="98.5" y="1.4" class="st2" width="5" height="13"/>
	<rect x="123" y="26" class="st2" width="5" height="20.9"/>
	<rect x="98.5" y="26" class="st2" width="5" height="20.9"/>
	<g>
		<path class="st2" d="M167.8,42c-1.3,0-2.2-0.2-2.5-0.6c-0.6-0.6-1-1.4-1-2.7v-1.9v-2.1h12.4c0.7,0,1.7-0.4,2.7-0.8
			c0.8-0.5,1.6-1.1,2.1-1.8c1-1.3,1.4-2.9,1.4-4.7v-1.2h-5v0.7c0,0.8-0.2,1.6-0.8,2.2c-0.5,0.4-0.8,0.5-1.4,0.5h-11.5v-0.2v-6.9h9.4
			v-5h-4.3v-4.1h-5.1v4.1h-13H148v-4.1h-5v4.1h-9.8v5h9.7v6.8v7.5v1.9c0,1.2-0.4,2.1-1,2.7c-0.5,0.4-1.3,0.6-2.5,0.6h-6.2v5.1h5.4
			c3.3,0,5.6-0.6,7-1.9c1.6-1.4,2.4-3.4,2.4-5.8c0-0.4,0-0.6,0-1.1v-2.8l0,0V22.5h2.2h9.1v7.1h-7.2v5.1h7.2v3.6c0,0.4,0,0.7,0,1
			c0,2.4,0.8,4.3,2.4,5.8c1.3,1.2,3.6,1.9,6.9,1.9H183V42H167.8z"/>
		<path class="st2" d="M138.1,11.8c0-0.8,0.2-1.4,0.6-1.9c0.6-0.7,1.4-1,2.4-1h32.3h1.6c0.8,0,1.6,0.4,2.1,1
			c0.4,0.5,0.5,0.8,0.5,1.4v11.4h5.1V10.2c0-0.7-0.4-1.7-0.8-2.7c-0.5-0.8-1.1-1.6-1.8-2.1c-1.3-1-2.9-1.4-4.7-1.4h-15V1.4h-5V4
			h-15.9c-1.4,0-2.8,0.5-4.1,1.6c-1.4,1.2-2.2,2.8-2.2,4.6v3.9h5v-2.3H138.1z"/>
	</g>
	<path class="st2" d="M94.1,2.7c-0.8-0.8-1.9-1.3-3.1-1.3h-0.5l0,0h-7.9c-1.7,0-3,0.8-3.9,2.4c-0.4,0.6-0.5,1.7-0.5,3.5v33.9
		c0,1.3,0.1,2.3,0.4,3c0.1,0.5,0.5,1,1,1.4c0.8,0.8,2.1,1.2,3.6,1.3v-7.6V34V8.6c0-1,0.1-1.6,0.2-1.8c0.2-0.5,0.7-0.6,1.6-0.6h5.4
		v7.2l0,0v26.1c0,1.1-0.1,1.8-0.5,2.1c-0.2,0.2-0.8,0.4-1.6,0.4h-2.8v5h4.8c1.9,0,3.4-0.7,4.3-2.2c0.5-0.6,0.6-1.8,0.6-3.5V6.7
		C95.4,4.9,94.9,3.5,94.1,2.7z"/>
	<polygon class="st2" points="115.7,25.9 115.7,22.6 127.9,22.6 127.9,17.6 127.1,17.6 125.1,17.6 120.2,17.6 117.9,17.6 
		115.7,17.6 115.7,1.4 110.7,1.4 110.7,17.6 108.2,17.6 105.8,17.6 100.7,17.6 99.2,17.6 98.5,17.6 98.5,22.6 110.7,22.6 
		110.7,25.9 110.7,30.8 110.7,47 115.7,47 115.7,30.8 	"/>
</g>
</svg>
